# xmcd
#
# Track frame offsets:
#	150
#	12466
#	22632
#	34625
#	46309
#	67955
#	81883
#	94100
#	111886
#	122104
#	149084
#	165922
#	197332
#
# Disc length: 2837 seconds
#
# Revision: 0
# Processed by: cddbd v1.5.2PL0 Copyright (c) Steve Scherf et al.
# Submitted via: EasyCDDAExtractor 16.0.1.1
#
DISCID=9e0b130d
DTITLE=Boone Creek - One Way Track
DYEAR=1979
DGENRE=Bluegrass
TTITLE0=One Way Track
TTITLE1=Head Over Heels
TTITLE2=Little Community Church
TTITLE3=Mississippi Queen
TTITLE4=In The Pines
TTITLE5=Can`T You Hear Me Calling
TTITLE6=No Mother Or Dad
TTITLE7=I`M Blue I`M Lonesome
TTITLE8=Daniel Prayed
TTITLE9=Sally Gooden
TTITLE10=Paridise
TTITLE11=Pathway Of Teardrops
TTITLE12=Walking In Jerusalem
EXTD=
EXTT0=
EXTT1=
EXTT2=
EXTT3=
EXTT4=
EXTT5=
EXTT6=
EXTT7=
EXTT8=
EXTT9=
EXTT10=
EXTT11=
EXTT12=
PLAYORDER=
